<svg xmlns="http://www.w3.org/2000/svg" xmlns:xlink="http://www.w3.org/1999/xlink" width="480" height="289" viewBox="0 0 480 289"><defs><path id="l3oda" d="M804.4 239.48c0-6.9 5.59-12.48 12.48-12.48h379.04c6.9 0 12.48 5.59 12.48 12.48v238.66c0 6.9-5.59 12.48-12.48 12.48H816.88c-6.9 0-12.48-5.59-12.48-12.48z"/><path id="l3odd" d="M807.44 490.14c0-7.8 6.33-14.14 14.14-14.14h372.03a14.14 14.14 0 0 1 0 28.29H821.6a14.14 14.14 0 0 1-14.15-14.15z"/><path id="l3odf" d="M818 486.14a9.99 9.99 0 0 1 9.98-9.98h362.44a9.99 9.99 0 0 1 0 19.97H827.97a9.99 9.99 0 0 1-9.98-9.98z"/><path id="l3odi" d="M803 493V225h407v268zm1.4-13.86c0 6.9 5.59 12.48 12.48 12.48h379.04c6.9 0 12.48-5.59 12.48-12.48V240.48c0-6.9-5.59-12.48-12.48-12.48H816.88c-6.9 0-12.48 5.59-12.48 12.48z"/><path id="l3odl" d="M766 491.42v-3.2h480v3.2z"/><path id="l3odm" d="M963.6 488.22h85.6v1.2c0 .66-.54 1.2-1.2 1.2h-83.2a1.2 1.2 0 0 1-1.2-1.2z"/><path id="l3odo" d="M842.8 497.01c-65.26 0-76.8-5.6-76.8-5.6l240.8-.79 239.2.8s-11.5 5.6-76.8 5.6h-162.4-164z"/><path id="l3odb" d="M824 472.67V245h364.8v227.67z"/><path id="l3odr" d="M1056.5 314a4.57 4.57 0 0 1-4.56-4.59H1039a17.6 17.6 0 0 1 14.15-17.3v-9.14h2.68V224h1.34v58.97h2.68v9.14a17.6 17.6 0 0 1 14.15 17.3h-12.94a4.57 4.57 0 0 1-4.56 4.59"/><path id="l3ods" d="M916.5 314a4.57 4.57 0 0 1-4.56-4.59H899a17.6 17.6 0 0 1 14.15-17.3v-9.14h2.68V224h1.34v58.97h2.68v9.14A17.6 17.6 0 0 1 934 309.4h-12.94a4.57 4.57 0 0 1-4.56 4.59"/><path id="l3odt" d="M1103.5 284a3.23 3.23 0 0 1-3.25-3.21H1091c0-6 4.35-11.01 10.1-12.11v-6.4h1.92V221h.96v41.28h1.92v6.4c5.75 1.1 10.1 6.1 10.1 12.1h-9.25a3.23 3.23 0 0 1-3.25 3.22"/><path id="l3odu" d="M1026.86 486.96c-3.72-4.7-14.13-7.35-24.52-7.68V447.2h24.3a4.42 4.42 0 1 0 0-8.82h-24.06v-26.9h17.29a4.64 4.64 0 0 0 4.64-4.64v-17.66a4.64 4.64 0 0 0-4.64-4.63h-39.48a4.64 4.64 0 0 0-4.64 4.63v17.66a4.64 4.64 0 0 0 4.64 4.63h16.9v26.9h-23.66a4.42 4.42 0 1 0 0 8.83h24.3v32.08c-10.4.33-20.8 2.98-24.53 7.68a4.41 4.41 0 1 0 4.02 1.56c2.97-2.47 10.3-4.95 20.5-5.27V487a4.4 4.4 0 1 0 4.42 0v-3.76c10.2.32 17.53 2.8 20.5 5.27a4.42 4.42 0 1 0 4.01-1.56"/><path id="l3odv" d="M1014.19 381.24l-.06.29c-.23.96-.48 1.86-.75 2.67-.48 1.4-.98 2.57-1.62 3.45a4.3 4.3 0 0 1-3.68 1.85h-16.49a4.28 4.28 0 0 1-3.68-1.85 12.74 12.74 0 0 1-1.62-3.45c-.27-.81-.53-1.71-.75-2.67-.02-.1-.05-.18-.06-.28-2.59-11.36-1.82-31.5 4.04-37.57 2.4-2.5 5.37-4.68 10.31-4.68 3.92 0 6.6 1.38 8.73 3.2.57.46 1.09.96 1.59 1.48.2.2.39.43.58.67 5.32 6.76 5.95 25.93 3.46 36.9"/><path id="l3odw" d="M1004.3 380.37v-5.63h-8.83v5.63l-2.21.17 2.2 14.23h8.84l2.21-14.23-2.2-.17"/><path id="l3odx" d="M1004.3 380.37l-8.83-3.54v-1.07a7.9 7.9 0 0 0 4.42 1.68 7.9 7.9 0 0 0 4.41-1.68v4.62"/><path id="l3ody" d="M1012.87 416.31c3.03 9.26 10.2 28.1-2.2 29.49-3.98.45-10.37 1.3-21.36 0-11.74-1.39-5.23-20.23-2.2-29.49h25.76"/><path id="l3odz" d="M1009.55 443.52a4.86 4.86 0 0 0-9.72-.07v.23l1.55 54h5.52l1.69-51.27c.6-.8.96-1.8.96-2.89"/><path id="l3odA" d="M1001.27 493.26s.65 3.77 2.86 3.77c2.2 0 2.85-3.77 2.85-3.77s.6 2.2.6 3.64c0 2.7-1.08 4.2-3.45 4.2-2.38 0-3.45-1.5-3.45-4.2 0-1.45.6-3.64.6-3.64"/><path id="l3odB" d="M990.22 443.52a4.86 4.86 0 0 1 9.71-.07v.23l-1.54 54h-5.52l-1.69-51.27c-.6-.8-.96-1.8-.96-2.89"/><path id="l3odC" d="M998.5 493.26s-.65 3.77-2.85 3.77-2.86-3.77-2.86-3.77-.59 2.2-.59 3.64c0 2.7 1.07 4.2 3.45 4.2 2.37 0 3.44-1.5 3.44-4.2 0-1.45-.6-3.64-.6-3.64"/><path id="l3odD" d="M1010.73 404.58c4.2-4.27 5.43-19.38-5.7-24.04l-5.14 14.08-5.16-14.08c-11.12 4.66-9.88 19.77-5.7 24.04 0 0-.58 6.48-4.74 18.8h14.12l1.48-5.3 1.4 5.3h14.19c-4.16-12.32-4.75-18.8-4.75-18.8"/><path id="l3odE" d="M980.8 422.29l6.26-30.56c.4-1.41 1-2.66 1.9-3.54 1.35-1.29 4.07-1.31 6.46-1.34h.12l-.81-6.42c-3.33.25-7 .15-10.17 3.18-2.7 2.58-3.73 6.06-4.27 9.38l-4.63 28.46c-.02 1 5.14.84 5.14.84"/><path id="l3odF" d="M1019.72 394.68c-.48-3.79-1.36-8.05-4.52-11.07-3.16-3.03-6.83-2.93-10.16-3.18l-.82 6.42h.12c2.4.03 5.12.05 6.46 1.34a7.48 7.48 0 0 1 1.81 3.25l.4 14.67 2.73 8.44a3.26 3.26 0 0 0 2.81-.55c.8-.6 1.64-1.54 1.65-2.55l-.48-16.77"/><path id="l3odG" d="M989.68 384.02l4.84 1.83-1.9 2.65 7.27 6.12-5.16-14.19-5.05 3.6"/><path id="l3odH" d="M1010.09 384.02l-5.06-3.53-5.15 14.13 7.27-6.12-1.9-2.65 4.84-1.83"/><path id="l3odI" d="M1010 359.52v-4.59c0-4.87-5.65-11.03-10.12-11.03-4.47 0-10.12 6.16-10.12 11.03v4.6c-1.24 0-2.25.98-2.25 2.2v2.3c0 1.21 1 2.2 2.25 2.2 0 4.88 5.65 11.21 10.12 11.21 4.47 0 10.12-6.33 10.12-11.2 1.24 0 2.25-1 2.25-2.22v-2.29c0-1.22-1.01-2.2-2.25-2.2"/><path id="l3odJ" d="M1005.4 360.77h-.07a1.74 1.74 0 0 0 .06 3.47h.07a1.74 1.74 0 0 0-.06-3.47m-5.52 16.67v-8.16l-2.25-.44s.6-3.64 2.25-7.07V343.9c4.47 0 10.12 6.16 10.12 11.03v4.6c1.24 0 2.25.98 2.25 2.2v2.3c0 1.21-1.01 2.2-2.25 2.2 0 4.88-5.65 11.21-10.12 11.21"/><path id="l3odK" d="M994.36 364.25a1.74 1.74 0 1 1 .07 0h-.07"/><path id="l3odL" d="M996.1 362a1.74 1.74 0 1 1-3.48.12 1.74 1.74 0 0 1 3.49-.12"/><path id="l3odM" d="M995.4 361.5a.44.44 0 1 1-.88.03.44.44 0 0 1 .87-.03"/><path id="l3odN" d="M996.48 360.67a2.54 2.54 0 0 0-2.05-1.4c-.56-.07-1.6.02-2.5 1.15h-.13c-.1-.01-.23-.04-.37-.1-.27-.11-.5-.34-.5-.34l-.06-.01-.03.07a1.88 1.88 0 0 0 .97.92l.08.03c.12 0 .23-.06.28-.16.6-.81 1.37-1.22 2.21-1.13.74.08 1.44.55 1.7 1.15a.22.22 0 0 0 .4-.18"/><path id="l3odO" d="M1005.4 364.25a1.74 1.74 0 1 1 .07 0h-.07"/><path id="l3odP" d="M1007.15 362a1.74 1.74 0 1 1-3.49.12 1.74 1.74 0 0 1 3.49-.12"/><path id="l3odQ" d="M1006.43 361.5a.44.44 0 1 1-.87.03.44.44 0 0 1 .87-.03"/><path id="l3odR" d="M1003.28 360.67a2.54 2.54 0 0 1 2.05-1.4c.56-.07 1.6.02 2.5 1.15h.12c.1-.01.24-.04.38-.1.27-.11.5-.34.5-.34l.06-.01.03.07-.1.18a1.8 1.8 0 0 1-.88.74l-.07.03a.29.29 0 0 1-.29-.16c-.58-.81-1.37-1.22-2.2-1.13-.74.08-1.44.55-1.7 1.15a.22.22 0 0 1-.4-.18"/><path id="l3odS" d="M1005.76 355.5c.3 1.08.89 2.5 1.9 3.35-3-.77-5.55-2.55-7.4-4.65a6.38 6.38 0 0 0 1.93 3.32c-.8-.36-1.6-.82-2.35-1.35a18.27 18.27 0 0 1-4.26-4.24c-1.75 3.54-4.58 8.5-6.78 8.56-3-6.04-3.3-19.22 11.03-19.22 14.33 0 12.18 14.97 11.06 19.22a26.34 26.34 0 0 1-5.13-4.99"/><path id="l3odT" d="M1003.4 370.9c0 1.73-1.58 3.14-3.54 3.14-1.95 0-3.53-1.4-3.53-3.14h7.07"/><path id="l3odU" d="M1002.37 372.08h-5.09a.4.4 0 0 1-.4-.4v-.78h5.89v.78a.4.4 0 0 1-.4.4"/><path id="l3odV" d="M1002.96 374.1a.4.4 0 0 1-.1-.77c5.56-1.37 7.68-6.47 7.7-6.52a.4.4 0 0 1 .74.3c-.09.22-2.29 5.52-8.25 6.99h-.1"/><path id="l3odW" d="M1002.96 374.5a.8.8 0 0 1-.19-1.55c.75-.19 1.47-.45 2.15-.79a.8.8 0 0 1 .7 1.42 12.16 12.16 0 0 1-2.66.93"/><path id="l3odX" d="M999.87 340c-6.53 0-12.26 5.32-12.26 11.38v8.93a.52.52 0 0 0 1.03 0v-8.93c0-5.51 5.25-10.35 11.23-10.35s11.22 4.84 11.22 10.35v8.93a.52.52 0 0 0 1.04 0v-8.93c0-6.06-5.73-11.38-12.26-11.38"/><path id="l3odY" d="M987.3 366.93a1.1 1.1 0 0 1-1.1-1.01l-.32-3.56a1.1 1.1 0 0 1 2.2-.2l.32 3.57c.05.6-.4 1.14-1 1.2h-.1"/><path id="l3odZ" d="M989.01 368.54a1.1 1.1 0 0 1-1.1-1l-.62-7.07a1.1 1.1 0 0 1 2.2-.2l.62 7.07c.06.6-.4 1.14-1 1.2h-.1"/><path id="l3odaa" d="M1012.44 366.93h-.1a1.1 1.1 0 0 1-1-1.2l.3-3.56a1.1 1.1 0 0 1 2.2.19l-.3 3.56c-.06.57-.54 1-1.1 1"/><path id="l3odab" d="M1010.72 368.54h-.1a1.1 1.1 0 0 1-1-1.2l.61-7.06a1.1 1.1 0 0 1 2.2.19l-.62 7.06c-.05.58-.53 1-1.1 1"/><path id="l3odac" d="M1066.94 423.89H945.98a3.97 3.97 0 1 0 0 7.94h2.23v71.92h6.63v-71.92h103.24v71.92h6.63v-71.92h2.23a3.97 3.97 0 1 0 0-7.94"/><path id="l3odae" d="M1053.6 423.9h-50.62a1.19 1.19 0 1 1 0-2.38h50.63a1.19 1.19 0 1 1 0 2.37"/><path id="l3odaf" d="M1052.79 421.6h-49a2 2 0 0 1-2-2v-34.43c0-1.11.9-2.01 2-2.01h49a2 2 0 0 1 2 2v34.44a2 2 0 0 1-2 2"/><path id="l3odag" d="M1032.63 401.16a4.33 4.33 0 1 1-8.67 0 4.33 4.33 0 0 1 8.67 0"/><path id="l3odah" d="M1011.64 421.6H1004a2.2 2.2 0 0 1-2.21-2.2v-34.03c0-1.22.99-2.21 2.2-2.21h38.75a43.96 43.96 0 0 0-31.1 38.45"/><path id="l3odai" d="M982.04 423.9h-7.87a.44.44 0 0 1-.44-.51 4.58 4.58 0 0 1 4.37-3.65 4.58 4.58 0 0 1 4.38 3.65c.04.27-.17.5-.44.5"/><path id="l3odaj" d="M983.43 421.27c-1.13-1.73-2.65-3.11-5.33-3.11-1.66 0-3.13.36-4 1.16-.17.08-.3.2-.39.37l-1.04 2.06a.85.85 0 1 0 1.52.76l.29-.58h.03l-.14.27a.97.97 0 1 0 1.73.87l.12-.23a.97.97 0 0 0 1.83.48l.2-.4a.95.95 0 0 0 .78.42c.36 0 .7-.2.87-.53l.9-1.8c2 2.18 3.33 1.32 2.63.26"/><path id="l3odak" d="M1126 431a18 18 0 1 1 36 0 18 18 0 0 1-36 0z"/><path id="l3odal" d="M1142 427.23c-.02-.55.36-.78.84-.53l2.12 1.13 1.75.92 2.12 1.12c.48.26.5.7.03 1l-5.77 3.6c-.46.29-.85.08-.87-.46l-.08-2.4-.06-1.98z"/><path id="l3odam" d="M928.44 302.38v14.17c0 4.47 3.61 8.1 8.06 8.1h2.6v9.9l8.1-9.9h36.41a8.08 8.08 0 0 0 8.06-8.1v-14.17c0-4.47-3.6-8.1-8.06-8.1h-47.1a8.08 8.08 0 0 0-8.07 8.1"/><path id="l3odan" d="M949.01 308.64a3.27 3.27 0 1 1-6.54.01 3.27 3.27 0 0 1 6.54-.01"/><path id="l3odao" d="M962.32 308.64a3.27 3.27 0 1 1-6.54.01 3.27 3.27 0 0 1 6.54-.01"/><path id="l3odap" d="M975.63 308.64a3.27 3.27 0 1 1-6.54.01 3.27 3.27 0 0 1 6.54-.01"/><filter id="l3odc" width="144%" height="208%" x="-12%" y="-44%" filterUnits="objectBoundingBox"><feGaussianBlur in="SourceGraphic" result="FeGaussianBlur1337Out" stdDeviation="4.800000000000001 4.800000000000001"/></filter><filter id="l3ode" width="148%" height="292%" x="-14%" y="-86%" filterUnits="objectBoundingBox"><feGaussianBlur in="SourceGraphic" result="FeGaussianBlur1344Out" stdDeviation="8 8"/></filter><mask id="l3odh" width="2" height="2" x="-1" y="-1"><path fill="#fff" d="M804 227h405v264H804z"/><use xlink:href="#l3oda"/></mask><filter id="l3odg" width="425" height="285" x="794" y="217" filterUnits="userSpaceOnUse"><feOffset dy="1" in="SourceGraphic" result="FeOffset1360Out"/><feGaussianBlur in="FeOffset1360Out" result="FeGaussianBlur1361Out" stdDeviation="0 0"/></filter><filter id="l3odj" width="200%" height="200%" x="-50%" y="-50%"><feGaussianBlur in="SourceGraphic" result="FeGaussianBlur1366Out" stdDeviation="0.5 0.5"/></filter><mask id="l3odk"><use fill="#fff" xlink:href="#l3oda"/></mask><linearGradient id="l3odn" x1="963.6" x2="1049.2" y1="489.42" y2="489.42" gradientUnits="userSpaceOnUse"><stop offset="0" stop-color="#bcbdbf" stop-opacity=".5"/><stop offset=".1" stop-color="#d8d8df" stop-opacity=".5"/><stop offset=".89" stop-color="#d8d8df" stop-opacity=".5"/><stop offset="1" stop-color="#adaabd" stop-opacity=".5"/></linearGradient><linearGradient id="l3odp" x1="1006" x2="1006" y1="490.62" y2="497.01" gradientUnits="userSpaceOnUse"><stop offset="0" stop-color="#fff"/><stop offset="1" stop-color="#cdcbd5"/></linearGradient><linearGradient id="l3odad" x1="1006.46" x2="1006.46" y1="425.93" y2="503.75" gradientUnits="userSpaceOnUse"><stop offset="0" stop-color="#4762e2"/><stop offset="1" stop-color="#2611c9"/></linearGradient><clipPath id="l3odq"><use xlink:href="#l3odb"/></clipPath></defs><g><g transform="translate(-766 -227)"><g><g><g filter="url(#l3odc)" opacity=".05"><use xlink:href="#l3odd"/></g><g filter="url(#l3ode)" opacity=".5"><use xlink:href="#l3odf"/></g></g><g><g><g filter="url(#l3odg)"><use fill="none" stroke-opacity=".2" stroke-width="0" mask="url(&quot;#l3odh&quot;)" xlink:href="#l3oda"/><use fill-opacity=".2" xlink:href="#l3oda"/></g><use fill="#f5f5f5" xlink:href="#l3oda"/><use fill="#fff" stroke="#fff" stroke-width="0" filter="url(#l3odj)" mask="url(&quot;#l3odk&quot;)" xlink:href="#l3odi"/></g><g><use fill="#f5f5f5" xlink:href="#l3odl"/></g><g><use fill="url(#l3odn)" xlink:href="#l3odm"/></g><g><use fill="url(#l3odp)" xlink:href="#l3odo"/></g></g><g><use fill="#d1d5ff" xlink:href="#l3odb"/></g><g clip-path="url(#l3odq)"><use fill="#8b9fff" xlink:href="#l3odr"/></g><g clip-path="url(#l3odq)" opacity=".46"><use fill="#8b9fff" xlink:href="#l3ods"/></g><g clip-path="url(#l3odq)" opacity=".55"><use fill="#8b9fff" xlink:href="#l3odt"/></g><g clip-path="url(#l3odq)"><g><use fill="#8b9fff" xlink:href="#l3odu"/></g><g><use fill="#44372d" xlink:href="#l3odv"/></g><g><use fill="#f1c9b1" xlink:href="#l3odw"/></g><g><use fill="#e49d7e" xlink:href="#l3odx"/></g><g><use fill="#1b3091" xlink:href="#l3ody"/></g><g><use fill="#f2c9b2" xlink:href="#l3odz"/></g><g><use fill="#e05844" xlink:href="#l3odA"/></g><g><use fill="#f2c9b2" xlink:href="#l3odB"/></g><g><use fill="#e05844" xlink:href="#l3odC"/></g><g><use fill="#1b3091" xlink:href="#l3odD"/></g><g><use fill="#1b3091" xlink:href="#l3odE"/></g><g><use fill="#1b1a19" xlink:href="#l3odF"/></g><g><use fill="#fffffe" xlink:href="#l3odG"/></g><g><use fill="#fffffe" xlink:href="#l3odH"/></g><g><use fill="#f1c9b1" xlink:href="#l3odI"/></g><g><use fill="#e7a689" xlink:href="#l3odJ"/></g><g><use fill="#e49d7e" xlink:href="#l3odK"/></g><g><use fill="#2d211a" xlink:href="#l3odL"/></g><g><use fill="#fffffe" xlink:href="#l3odM"/></g><g><use fill="#2d211a" xlink:href="#l3odN"/></g><g><use fill="#da8162" xlink:href="#l3odO"/></g><g><use fill="#2d211a" xlink:href="#l3odP"/></g><g><use fill="#fffffe" xlink:href="#l3odQ"/></g><g><use fill="#2d211a" xlink:href="#l3odR"/></g><g><use fill="#44372d" xlink:href="#l3odS"/></g><g><use fill="#e05844" xlink:href="#l3odT"/></g><g><use fill="#fffffe" xlink:href="#l3odU"/></g><g><use fill="#626066" xlink:href="#l3odV"/></g><g><use fill="#3b3940" xlink:href="#l3odW"/></g><g><use fill="#626066" xlink:href="#l3odX"/></g><g><use fill="#8b9fff" xlink:href="#l3odY"/></g><g><use fill="#626066" xlink:href="#l3odZ"/></g><g><use fill="#8b9fff" xlink:href="#l3odaa"/></g><g><use fill="#626066" xlink:href="#l3odab"/></g><g><use fill="url(#l3odad)" xlink:href="#l3odac"/></g><g><use fill="#9b9b9b" xlink:href="#l3odae"/></g><g><use fill="#e5e6e3" xlink:href="#l3odaf"/></g><g><use fill="#d7d7d7" xlink:href="#l3odag"/></g><g><use fill="#ebece9" xlink:href="#l3odah"/></g><g><use fill="#84c9bc" xlink:href="#l3odai"/></g><g><use fill="#f1c9b1" xlink:href="#l3odaj"/></g></g></g><g><g><use fill="#2e25cf" xlink:href="#l3odak"/></g><g><use fill="#fff" xlink:href="#l3odal"/></g></g></g><g transform="matrix(-1 0 0 1 1154 -227)"><g><use fill="#2817cb" xlink:href="#l3odam"/></g><g><use fill="#fffffe" xlink:href="#l3odan"/></g><g><use fill="#fffffe" xlink:href="#l3odao"/></g><g><use fill="#fffffe" xlink:href="#l3odap"/></g></g></g></svg>