<svg xmlns="http://www.w3.org/2000/svg" xmlns:xlink="http://www.w3.org/1999/xlink" width="16" height="16" viewBox="0 0 16 16"><defs><path id="am8da" d="M1276.08 43.36l.03-.02.02.12zm-9.37-1.89l.07-.07.11.07-.09.07zm.22.2v.14h-.24l-.06-.1v-.13h.02zm-1-.25h.25l-.31.45-.13-.07.03-.19zm.59.3v.14l-.1.1h-.24l.03-.16h.12l.02-.06zm-.07-.36v-.17l.15.14zm.12.06v.15l-.1.07-.15.02v-.24zm-.2-.2v.14h-.44l-.16-.04.04-.1.2-.1h.3v.1zm-1.02-.55l.2-.1.17.05-.06.23-.19.06zm10.6 2.32h-.58l-.36-.26-.37.03V43h-.12l-.13-.1-.64-.16v-.42l-.83.07-.25.14h-.33l-.16-.02-.4.22v.41l-.8.59.07.25h.16l-.04.23-.12.05v.62l.7.8h.3l.02-.06h.55l.15-.14h.31l.17.17.47.05-.06.61.5.9-.26.52.02.25.2.2v.6l.29.37v.49h.24a7.3 7.3 0 0 1-12.41-7.48v-.23l.26-.32.3-.5v.13l-.3.37c-.1.18-.18.36-.26.55v.42l.3.14v.58l.3.5.23.04.03-.17-.28-.44-.05-.42h.16l.07.44.4.59-.1.19.26.4.64.15v-.1l.25.03-.02.18.2.04.31.08.44.5.56.05.05.45-.38.27-.02.4-.05.26.55.69.04.24.23.05c.02 0 .45.32.45.32v1.26l.15.04-.1.58.25.34-.04.57.33.6.44.37.43.01.04-.14-.32-.27.02-.13.06-.17.01-.16-.22-.01-.1-.14.17-.17.03-.13-.2-.06.01-.12.29-.04.43-.21.15-.27.45-.58-.1-.46.14-.24h.42l.28-.21.1-.88.3-.4.06-.26-.28-.1-.2-.3h-.64l-.5-.2-.03-.37-.17-.3h-.46l-.27-.42-.24-.12-.01.13-.43.03-.16-.22-.45-.1-.37.43-.59-.1-.04-.65-.43-.08.18-.32-.05-.18-.56.37-.35-.04-.13-.28.08-.28.2-.36.44-.22h.86v.26l.3.14-.02-.45.23-.22.45-.3.03-.2.45-.48.48-.26-.04-.04.32-.3.12.03.05.07.13-.14.03-.01-.14-.02-.14-.05v-.13l.08-.06h.16l.07.04.06.12h.08v-.02h.02l.23-.03.03-.1.13.03v.12l-.12.08.02.13.4.12h.1v-.18l-.32-.14-.02-.09.27-.09.01-.25-.28-.17-.02-.44-.38.2h-.14l.04-.34-.52-.12-.22.16v.5l-.39.12-.15.33-.17.03v-.42l-.37-.05-.18-.12-.07-.27.65-.38.32-.1.03.22.18-.01.01-.1.19-.03v-.04l-.08-.04-.02-.11.23-.02.14-.14v-.01h.01l.04-.05.48-.06.22.18-.56.3.7.17.1-.24h.3l.12-.2-.22-.06v-.26l-.69-.3-.47.05-.27.14.02.34-.28-.04-.04-.2.26-.24-.48-.02-.14.04-.06.17.18.03-.04.18-.3.02-.06.12-.45.01s0-.25-.03-.25h.36l.26-.27-.14-.07-.2.19-.32-.02-.2-.27h-.4l-.44.32h.4l.03.12-.1.1h.44l.07.16-.5-.02-.02-.12-.31-.07-.17-.09h-.36a7.27 7.27 0 0 1 9.13.43l-.1.16-.33.13-.14.16.03.18.18.02.1.26.3-.12.05.35h-.09l-.25-.03-.27.04-.26.38-.38.06-.06.32.16.04-.04.2-.38-.07-.35.08-.07.19.06.4.2.1h.34l.23-.03.07-.18.36-.46.24.04.23-.2.04.16.57.38-.07.1-.25-.02.1.14.15.04.19-.08v-.22l.08-.04-.07-.08-.38-.2-.1-.29h.32l.1.1.27.24.01.28.28.3.11-.41.2-.1.03.33.2.21h.38l.2.57zm-11.02-3.16l.17-.03v.16l-.36.02-.06-.08zm-.25-.37h.15l.02-.06h.25v.12l-.07.1h-.35zm9.62.89V40l.37.4-.15.21h-.5l-.03-.1zm1.16 1.4l.04-.05c.07.11.12.23.18.35h-.08l-.14.02zm1.5 3.19a7.73 7.73 0 0 0-.57-2.87l-.06-.15a8 8 0 0 0-1.5-2.31l-.12-.13a7.87 7.87 0 0 0-5.73-2.44 7.95 7.95 0 0 0-6.31 3.1 7.99 7.99 0 1 0 14.3 4.87l-.01-.07z"/></defs><g><g transform="translate(-1261 -37)"><use fill="#fff" xlink:href="#am8da"/></g></g></svg>